<?xml version="1.0" encoding="UTF-8"?>
<svg id="Layer_1" xmlns="http://www.w3.org/2000/svg" version="1.1" viewBox="0 0 1027 1109">
  <!-- Generator: Adobe Illustrator 29.0.1, SVG Export Plug-In . SVG Version: 2.1.0 Build 192)  -->
  <path d="M0,553v553h1027V0H0v553ZM851.5,294.5c7.6,2.7,18.3,6.7,23.9,8.8s19.1,7,30.1,11c36.8,13.4,49.5,18.5,49.5,19.9s-2.9,2.7-16.5,8.2c-2.6,1-9.4,3.8-15,6.2s-12.6,5.2-15.6,6.3-6.5,2.6-7.8,3.2c-1.3.7-4.3,1.9-6.6,2.9s-5.3,2.2-6.6,2.9c-1.3.5-4.8,2.1-7.8,3.2-6,2.3-13.6,5.4-28.9,11.8-5.7,2.5-11.1,4.7-12.1,5.1-2,.7-4.8-.3-22.7-7.8-5.7-2.3-13.2-5.5-16.8-7s-7.9-3.3-9.6-4c-1.7-.5-7.6-3-13.2-5.5-5.7-2.3-12.6-5.2-15.6-6.3s-6.5-2.6-7.8-3.2c-1.3-.7-4.3-1.9-6.6-2.9s-5.3-2.2-6.6-2.7-4.3-1.8-6.6-2.7c-11.3-4.4-15.8-6.9-15.2-8,.4-.7,6.1-3.2,13-5.8,6.9-2.5,20.2-7.4,29.8-11s28-10.4,40.9-15.1c12.9-4.8,25.6-9.5,28.3-10.4,6.7-2.5,7.2-2.5,22.4,3ZM207.3,316.4c.4,1.2.7,51.5.7,111.8s.5,109.6,1.1,109.6,9.5-9.1,20.1-20.3c10.5-11.1,21.8-22.9,25-26.3,3.4-3.3,10-10.2,14.6-15.1,4.7-5.1,11.7-12.5,15.6-16.6,4-4.1,11.8-12.5,17.4-18.5,5.7-6.2,12.1-13,14.4-15.1,2.3-2.2,8.8-8.9,14.4-15.1,5.7-6,17.3-18.4,25.9-27.3,8.7-8.9,23-24,31.9-33.6,8.9-9.6,20.2-21.5,25.1-26.5l9-9.2h78.5c52.6,0,78.5.4,78.5,1.4s-7.5,10.3-16.5,21c-9.1,10.8-29.3,35-44.9,53.8-15.5,18.9-34.9,42-42.8,51.5-8.1,9.5-18.3,21.8-22.8,27.4-4.6,5.6-16.1,19.5-25.7,30.9-9.6,11.3-30.7,36.6-46.9,56.1-16.2,19.6-35.4,42.8-42.7,51.5-7.2,8.8-18.9,22.6-25.9,31-7,8.2-22.1,26.5-33.7,40.5-11.5,14-27.5,33.1-35.5,42.5-8.1,9.5-24.5,29.2-36.7,43.9-12.3,14.7-24.4,29.2-27.1,32.4-2.6,3-16.5,19.6-30.7,36.8-14.2,17-26.3,30.9-27.1,30.6-.8-.4-1.4-79.2-1.8-242.6l-.6-242.1-27.3-.4-27.4-.3v-65.9h71.4c64,0,71.4.3,72.2,2.2ZM728.3,367.2c10.6,4.8,13.9,6.4,22.1,10.6,2.3,1.2,7.2,3.4,10.8,5.1s8.4,3.8,10.6,4.9c2,1.1,5.7,2.7,7.8,3.8,2,1.1,9.5,4.5,16.5,7.7,7,3.2,15.5,7.3,19,9.1l6.3,3.3v82.3c0,80-.1,82.3-2.3,82.3s-4.3-1.2-7-2.7c-2.5-1.5-8.3-4.7-13-7-8.9-4.5-15.3-7.8-40.5-21-3.5-1.8-9-4.7-12.4-6.3-3.2-1.8-11.1-5.8-17.2-9.1-6.3-3.3-11.7-6-12.3-6s-1.3-1-1.7-2.2-.7-37.6-.7-81c0-63.9.2-78.8,1.6-78.8s6.4,2.2,12.4,4.9ZM957.6,441c.5,43.4.6,79.6.2,80.5-.6,1.9-3.8,3.8-19.2,11.7-4,1.9-10.2,5.2-13.8,7-3.6,1.9-8.8,4.5-11.4,5.9s-7.8,4-11.4,5.9c-3.6,1.8-9.3,4.8-12.6,6.4-7.2,3.6-15.2,7.7-26.2,13.6-4.4,2.3-8.9,4.3-9.9,4.3-1.6,0-1.8-10.7-1.8-82.2s.4-82.5,1.6-83.4c.7-.7,6-3.4,11.7-5.9s13-6,16.2-7.7c3.4-1.6,9-4.4,12.6-6s8.4-3.8,10.6-4.9c2-1.1,5.7-2.7,7.8-3.8,2-1.1,6.9-3.3,10.5-4.9s8.3-3.7,10.2-4.8c2-1,6-2.9,9-4.4s6.7-3.3,8.4-4.1c7.3-3.8,6.7-9.2,7.6,77ZM539.4,567.8c26.7,5.5,44.1,16.1,54.7,33.3,13.9,22.6,17.2,60.4,7.8,91.1-3.4,11-11.2,23.3-22.8,35.7-11.1,11.7-13.7,14.1-63.1,56.5-15.5,13.3-31,26.9-34.5,30.2-7.2,7-11.5,16.2-10.9,23.6l.4,4.9h22.2c32.8,0,35.5-1.9,37.9-27.4l1.2-13.7,35.5-.4c19.5-.1,36.7,0,38.2.4l2.6.7-.2,53.9-.4,53.8h-212.9v-49.4c0-48,.1-49.7,2.8-59,3.7-12.5,7.1-18.9,14.9-28.1,3.5-4.3,27.9-25.9,54.1-48.4,50.4-43.1,58.6-50.9,61.6-59.3,4.3-11.8.8-29.1-7-34.4-17.4-12.1-41.7-4.9-48.9,14.3-1.8,4.8-2.3,9.5-2.3,22.8s-.5,17.3-1.4,18.4c-1.7,1.9-64.2,2.3-66.9.5-1.1-1-1.4-11.3-1.2-46.9l.4-45.8,10.8-6.4c15.9-9.5,46.2-20.3,57.4-20.6,2.2,0,5.1-.5,6.4-1.2,3.2-1.6,54.6-.7,63.7,1.1Z"/>
</svg>